<?xml version="1.0" encoding="UTF-8"?>
<!DOCTYPE svg PUBLIC "-//W3C//DTD SVG 1.1//EN" "http://www.w3.org/Graphics/SVG/1.1/DTD/svg11.dtd">
<!-- Creator: CorelDRAW 2020 (64-Bit) -->
<svg xmlns="http://www.w3.org/2000/svg" xml:space="preserve" width="4.4442in" height="0.956224in" version="1.1" style="shape-rendering:geometricPrecision; text-rendering:geometricPrecision; image-rendering:optimizeQuality; fill-rule:evenodd; clip-rule:evenodd"
viewBox="0 0 108.31 23.3"
 xmlns:xlink="http://www.w3.org/1999/xlink"
 xmlns:xodm="http://www.corel.com/coreldraw/odm/2003">
 <defs>
  <style type="text/css">
   <![CDATA[
    .fil1 {fill:#F54708}
    .fil0 {fill:#F54708;fill-rule:nonzero}
   ]]>
  </style>
 </defs>
 <g id="Layer_x0020_1">
  <metadata id="CorelCorpID_0Corel-Layer"/>
  <g id="_1847024891120">
   <path class="fil0" d="M30.27 22.63l7.73 -0 -11.75 -21.95 -14.39 0 -11.86 21.95 7.54 0c6.54,-14.48 7.79,-17.01 11.46,-17.02 3.61,-0.01 4.74,2.64 11.27,17.02z"/>
   <path class="fil1" d="M87.78 17.25c0.92,-0.28 1.71,-0.69 2.34,-1.24l0 -0c0.63,-0.54 1.11,-1.17 1.42,-1.89 0.32,-0.73 0.48,-1.55 0.48,-2.48 0,-0.93 -0.16,-1.76 -0.48,-2.48 -0.31,-0.71 -0.79,-1.34 -1.42,-1.87l0 -0c-0.64,-0.54 -1.42,-0.94 -2.35,-1.22 -0.95,-0.28 -2.05,-0.42 -3.3,-0.42 -1.25,0 -2.34,0.14 -3.29,0.42 -0.92,0.27 -1.71,0.68 -2.35,1.22 -0.64,0.53 -1.11,1.16 -1.43,1.87 -0.32,0.72 -0.48,1.55 -0.48,2.48 0,0.93 0.16,1.76 0.48,2.48 0.31,0.72 0.79,1.35 1.42,1.89 0.64,0.55 1.42,0.96 2.35,1.24 0.95,0.28 2.05,0.43 3.3,0.43 1.25,0 2.36,-0.14 3.3,-0.43zm9.68 -1.04c-0.52,1.36 -1.3,2.5 -2.34,3.43 -1.25,1.22 -2.76,2.14 -4.55,2.75 -1.77,0.6 -3.8,0.91 -6.1,0.91 -2.33,0 -4.39,-0.3 -6.16,-0.91 -1.79,-0.61 -3.28,-1.53 -4.49,-2.75 -1.04,-0.93 -1.81,-2.08 -2.33,-3.43 -0.51,-1.33 -0.77,-2.86 -0.77,-4.57 0,-1.71 0.26,-3.23 0.77,-4.57 0.52,-1.35 1.3,-2.5 2.34,-3.44 1.21,-1.22 2.7,-2.13 4.49,-2.74 1.77,-0.6 3.82,-0.9 6.16,-0.9 2.29,0 4.32,0.3 6.1,0.9 1.79,0.61 3.3,1.52 4.55,2.74 1.04,0.94 1.82,2.08 2.34,3.44 0.51,1.33 0.77,2.86 0.77,4.57 0,1.72 -0.26,3.24 -0.77,4.57z"/>
   <polygon class="fil1" points="107.63,22.63 102.42,22.63 102.42,0.68 108.31,0.68 108.31,22.63 "/>
   <path class="fil0" d="M40.69 0.68l-7.73 0 11.75 21.95 14.39 0 11.86 -21.95 -7.54 0c-6.54,14.48 -7.79,17.01 -11.46,17.02 -3.61,0.01 -4.74,-2.64 -11.27,-17.02z"/>
  </g>
 </g>
</svg>
